<svg xmlns="http://www.w3.org/2000/svg" viewBox="0 0 1200 800" preserveAspectRatio="xMidYMid slice">
  <rect width="1200" height="800" fill="#d8d1bf"></rect><path d="M 0 40 L 0 46.5 L 22 47.0 L 44 46.8 L 66 46.0 L 88 44.6 L 110 42.7 L 132 40.6 L 154 38.4 L 176 36.3 L 198 34.7 L 220 33.5 L 242 33.0 L 264 33.2 L 286 34.0 L 308 35.5 L 330 37.3 L 352 39.5 L 374 41.6 L 396 43.7 L 418 45.3 L 440 46.5 L 462 47.0 L 484 46.8 L 506 46.0 L 528 44.5 L 550 42.7 L 572 40.5 L 594 38.4 L 616 36.3 L 638 34.7 L 660 33.5 L 682 33.0 L 704 33.2 L 726 34.0 L 748 35.5 L 770 37.3 L 792 39.5 L 814 41.7 L 836 43.7 L 858 45.3 L 880 46.5 L 902 47.0 L 924 46.8 L 946 46.0 L 968 44.5 L 990 42.7 L 1012 40.5 L 1034 38.3 L 1056 36.3 L 1078 34.7 L 1100 33.5 L 1122 33.0 L 1144 33.2 L 1166 34.1 L 1188 35.5 " stroke="#b3ac9a" stroke-width="1" fill="none"></path><path d="M 0 56 L 0 63.0 L 22 62.5 L 44 61.3 L 66 59.7 L 88 57.6 L 110 55.5 L 132 53.3 L 154 51.5 L 176 50.0 L 198 49.2 L 220 49.0 L 242 49.5 L 264 50.7 L 286 52.3 L 308 54.4 L 330 56.5 L 352 58.7 L 374 60.5 L 396 62.0 L 418 62.8 L 440 63.0 L 462 62.5 L 484 61.3 L 506 59.7 L 528 57.6 L 550 55.4 L 572 53.3 L 594 51.4 L 616 50.0 L 638 49.2 L 660 49.0 L 682 49.5 L 704 50.7 L 726 52.4 L 748 54.4 L 770 56.6 L 792 58.7 L 814 60.6 L 836 62.0 L 858 62.8 L 880 63.0 L 902 62.5 L 924 61.3 L 946 59.6 L 968 57.6 L 990 55.4 L 1012 53.3 L 1034 51.4 L 1056 50.0 L 1078 49.2 L 1100 49.0 L 1122 49.5 L 1144 50.7 L 1166 52.4 L 1188 54.4 " stroke="#b3ac9a" stroke-width="1" fill="none"></path><path d="M 0 72 L 0 78.0 L 22 76.6 L 44 74.7 L 66 72.6 L 88 70.4 L 110 68.4 L 132 66.7 L 154 65.5 L 176 65.0 L 198 65.2 L 220 66.0 L 242 67.4 L 264 69.3 L 286 71.4 L 308 73.6 L 330 75.7 L 352 77.3 L 374 78.5 L 396 79.0 L 418 78.8 L 440 78.0 L 462 76.5 L 484 74.7 L 506 72.5 L 528 70.4 L 550 68.3 L 572 66.7 L 594 65.5 L 616 65.0 L 638 65.2 L 660 66.0 L 682 67.5 L 704 69.3 L 726 71.5 L 748 73.6 L 770 75.7 L 792 77.3 L 814 78.5 L 836 79.0 L 858 78.8 L 880 78.0 L 902 76.5 L 924 74.7 L 946 72.5 L 968 70.3 L 990 68.3 L 1012 66.7 L 1034 65.5 L 1056 65.0 L 1078 65.2 L 1100 66.0 L 1122 67.5 L 1144 69.3 L 1166 71.5 L 1188 73.7 " stroke="#b3ac9a" stroke-width="1" fill="none"></path><path d="M 0 88 L 0 91.7 L 22 89.7 L 44 87.5 L 66 85.3 L 88 83.5 L 110 82.0 L 132 81.2 L 154 81.0 L 176 81.5 L 198 82.7 L 220 84.3 L 242 86.4 L 264 88.5 L 286 90.7 L 308 92.5 L 330 94.0 L 352 94.8 L 374 95.0 L 396 94.5 L 418 93.3 L 440 91.7 L 462 89.6 L 484 87.5 L 506 85.3 L 528 83.5 L 550 82.0 L 572 81.2 L 594 81.0 L 616 81.5 L 638 82.7 L 660 84.3 L 682 86.4 L 704 88.6 L 726 90.7 L 748 92.5 L 770 94.0 L 792 94.8 L 814 95.0 L 836 94.5 L 858 93.3 L 880 91.6 L 902 89.6 L 924 87.4 L 946 85.3 L 968 83.4 L 990 82.0 L 1012 81.2 L 1034 81.0 L 1056 81.5 L 1078 82.7 L 1100 84.4 L 1122 86.4 L 1144 88.6 L 1166 90.7 L 1188 92.6 " stroke="#b3ac9a" stroke-width="1" fill="none"></path><path d="M 0 104 L 0 104.6 L 22 102.4 L 44 100.4 L 66 98.7 L 88 97.5 L 110 97.0 L 132 97.2 L 154 98.0 L 176 99.4 L 198 101.3 L 220 103.4 L 242 105.6 L 264 107.6 L 286 109.3 L 308 110.5 L 330 111.0 L 352 110.8 L 374 110.0 L 396 108.6 L 418 106.7 L 440 104.6 L 462 102.4 L 484 100.4 L 506 98.7 L 528 97.5 L 550 97.0 L 572 97.2 L 594 98.0 L 616 99.5 L 638 101.3 L 660 103.4 L 682 105.6 L 704 107.7 L 726 109.3 L 748 110.5 L 770 111.0 L 792 110.8 L 814 110.0 L 836 108.5 L 858 106.7 L 880 104.5 L 902 102.4 L 924 100.3 L 946 98.7 L 968 97.5 L 990 97.0 L 1012 97.2 L 1034 98.0 L 1056 99.5 L 1078 101.3 L 1100 103.5 L 1122 105.6 L 1144 107.7 L 1166 109.3 L 1188 110.5 " stroke="#b3ac9a" stroke-width="1" fill="none"></path><path d="M 0 120 L 0 117.4 L 22 115.5 L 44 114.0 L 66 113.2 L 88 113.0 L 110 113.5 L 132 114.7 L 154 116.3 L 176 118.3 L 198 120.5 L 220 122.7 L 242 124.5 L 264 126.0 L 286 126.8 L 308 127.0 L 330 126.5 L 352 125.3 L 374 123.7 L 396 121.7 L 418 119.5 L 440 117.3 L 462 115.5 L 484 114.0 L 506 113.2 L 528 113.0 L 550 113.5 L 572 114.7 L 594 116.3 L 616 118.4 L 638 120.5 L 660 122.7 L 682 124.5 L 704 126.0 L 726 126.8 L 748 127.0 L 770 126.5 L 792 125.3 L 814 123.7 L 836 121.6 L 858 119.5 L 880 117.3 L 902 115.5 L 924 114.0 L 946 113.2 L 968 113.0 L 990 113.5 L 1012 114.7 L 1034 116.3 L 1056 118.4 L 1078 120.6 L 1100 122.7 L 1122 124.6 L 1144 126.0 L 1166 126.8 L 1188 127.0 " stroke="#b3ac9a" stroke-width="1" fill="none"></path><path d="M 0 136 L 0 130.7 L 22 129.5 L 44 129.0 L 66 129.2 L 88 130.0 L 110 131.4 L 132 133.3 L 154 135.4 L 176 137.6 L 198 139.6 L 220 141.3 L 242 142.5 L 264 143.0 L 286 142.8 L 308 142.0 L 330 140.6 L 352 138.7 L 374 136.6 L 396 134.4 L 418 132.4 L 440 130.7 L 462 129.5 L 484 129.0 L 506 129.2 L 528 130.0 L 550 131.4 L 572 133.3 L 594 135.4 L 616 137.6 L 638 139.6 L 660 141.3 L 682 142.5 L 704 143.0 L 726 142.8 L 748 142.0 L 770 140.6 L 792 138.7 L 814 136.6 L 836 134.4 L 858 132.3 L 880 130.7 L 902 129.5 L 924 129.0 L 946 129.2 L 968 130.0 L 990 131.5 L 1012 133.3 L 1034 135.5 L 1056 137.6 L 1078 139.7 L 1100 141.3 L 1122 142.5 L 1144 143.0 L 1166 142.8 L 1188 142.0 " stroke="#b3ac9a" stroke-width="1" fill="none"></path><path d="M 0 152 L 0 145.2 L 22 145.0 L 44 145.5 L 66 146.7 L 88 148.3 L 110 150.3 L 132 152.5 L 154 154.6 L 176 156.5 L 198 157.9 L 220 158.8 L 242 159.0 L 264 158.5 L 286 157.3 L 308 155.7 L 330 153.7 L 352 151.5 L 374 149.3 L 396 147.5 L 418 146.0 L 440 145.2 L 462 145.0 L 484 145.5 L 506 146.7 L 528 148.3 L 550 150.3 L 572 152.5 L 594 154.7 L 616 156.5 L 638 158.0 L 660 158.8 L 682 159.0 L 704 158.5 L 726 157.3 L 748 155.7 L 770 153.6 L 792 151.5 L 814 149.3 L 836 147.5 L 858 146.0 L 880 145.2 L 902 145.0 L 924 145.5 L 946 146.7 L 968 148.3 L 990 150.4 L 1012 152.5 L 1034 154.7 L 1056 156.5 L 1078 158.0 L 1100 158.8 L 1122 159.0 L 1144 158.5 L 1166 157.3 L 1188 155.7 " stroke="#b3ac9a" stroke-width="1" fill="none"></path><path d="M 0 168 L 0 161.2 L 22 162.0 L 44 163.4 L 66 165.3 L 88 167.4 L 110 169.6 L 132 171.6 L 154 173.3 L 176 174.5 L 198 175.0 L 220 174.8 L 242 174.0 L 264 172.6 L 286 170.7 L 308 168.6 L 330 166.4 L 352 164.4 L 374 162.7 L 396 161.5 L 418 161.0 L 440 161.2 L 462 162.0 L 484 163.4 L 506 165.3 L 528 167.4 L 550 169.6 L 572 171.6 L 594 173.3 L 616 174.5 L 638 175.0 L 660 174.8 L 682 174.0 L 704 172.6 L 726 170.7 L 748 168.6 L 770 166.4 L 792 164.4 L 814 162.7 L 836 161.5 L 858 161.0 L 880 161.2 L 902 162.0 L 924 163.4 L 946 165.3 L 968 167.4 L 990 169.6 L 1012 171.7 L 1034 173.3 L 1056 174.5 L 1078 175.0 L 1100 174.8 L 1122 174.0 L 1144 172.5 L 1166 170.7 L 1188 168.5 " stroke="#b3ac9a" stroke-width="1" fill="none"></path><path d="M 0 184 L 0 178.6 L 22 180.3 L 44 182.3 L 66 184.5 L 88 186.6 L 110 188.5 L 132 189.9 L 154 190.8 L 176 191.0 L 198 190.5 L 220 189.4 L 242 187.7 L 264 185.7 L 286 183.5 L 308 181.4 L 330 179.5 L 352 178.1 L 374 177.2 L 396 177.0 L 418 177.5 L 440 178.7 L 462 180.3 L 484 182.3 L 506 184.5 L 528 186.6 L 550 188.5 L 572 190.0 L 594 190.8 L 616 191.0 L 638 190.5 L 660 189.3 L 682 187.7 L 704 185.7 L 726 183.5 L 748 181.3 L 770 179.5 L 792 178.0 L 814 177.2 L 836 177.0 L 858 177.5 L 880 178.7 L 902 180.3 L 924 182.4 L 946 184.5 L 968 186.7 L 990 188.5 L 1012 190.0 L 1034 190.8 L 1056 191.0 L 1078 190.5 L 1100 189.3 L 1122 187.7 L 1144 185.6 L 1166 183.5 L 1188 181.3 " stroke="#b3ac9a" stroke-width="1" fill="none"></path><path d="M 0 200 L 0 197.3 L 22 199.4 L 44 201.6 L 66 203.6 L 88 205.3 L 110 206.4 L 132 207.0 L 154 206.8 L 176 206.0 L 198 204.6 L 220 202.7 L 242 200.6 L 264 198.4 L 286 196.4 L 308 194.7 L 330 193.5 L 352 193.0 L 374 193.2 L 396 194.0 L 418 195.4 L 440 197.3 L 462 199.4 L 484 201.6 L 506 203.6 L 528 205.3 L 550 206.5 L 572 207.0 L 594 206.8 L 616 206.0 L 638 204.6 L 660 202.7 L 682 200.6 L 704 198.4 L 726 196.4 L 748 194.7 L 770 193.5 L 792 193.0 L 814 193.2 L 836 194.0 L 858 195.4 L 880 197.3 L 902 199.4 L 924 201.6 L 946 203.6 L 968 205.3 L 990 206.5 L 1012 207.0 L 1034 206.8 L 1056 206.0 L 1078 204.6 L 1100 202.7 L 1122 200.6 L 1144 198.4 L 1166 196.4 L 1188 194.7 " stroke="#b3ac9a" stroke-width="1" fill="none"></path><path d="M 0 216 L 0 216.5 L 22 218.6 L 44 220.5 L 66 221.9 L 88 222.8 L 110 223.0 L 132 222.5 L 154 221.4 L 176 219.7 L 198 217.7 L 220 215.5 L 242 213.4 L 264 211.5 L 286 210.1 L 308 209.2 L 330 209.0 L 352 209.5 L 374 210.6 L 396 212.3 L 418 214.3 L 440 216.5 L 462 218.6 L 484 220.5 L 506 221.9 L 528 222.8 L 550 223.0 L 572 222.5 L 594 221.3 L 616 219.7 L 638 217.7 L 660 215.5 L 682 213.4 L 704 211.5 L 726 210.0 L 748 209.2 L 770 209.0 L 792 209.5 L 814 210.7 L 836 212.3 L 858 214.3 L 880 216.5 L 902 218.7 L 924 220.5 L 946 222.0 L 968 222.8 L 990 223.0 L 1012 222.5 L 1034 221.3 L 1056 219.7 L 1078 217.7 L 1100 215.5 L 1122 213.3 L 1144 211.5 L 1166 210.0 L 1188 209.2 " stroke="#b3ac9a" stroke-width="1" fill="none"></path><path d="M 0 232 L 0 235.6 L 22 237.3 L 44 238.4 L 66 239.0 L 88 238.8 L 110 238.0 L 132 236.6 L 154 234.7 L 176 232.6 L 198 230.4 L 220 228.4 L 242 226.7 L 264 225.6 L 286 225.0 L 308 225.2 L 330 226.0 L 352 227.4 L 374 229.3 L 396 231.4 L 418 233.6 L 440 235.6 L 462 237.3 L 484 238.4 L 506 239.0 L 528 238.8 L 550 238.0 L 572 236.6 L 594 234.7 L 616 232.6 L 638 230.4 L 660 228.4 L 682 226.7 L 704 225.5 L 726 225.0 L 748 225.2 L 770 226.0 L 792 227.4 L 814 229.3 L 836 231.4 L 858 233.6 L 880 235.6 L 902 237.3 L 924 238.5 L 946 239.0 L 968 238.8 L 990 238.0 L 1012 236.6 L 1034 234.7 L 1056 232.6 L 1078 230.4 L 1100 228.4 L 1122 226.7 L 1144 225.5 L 1166 225.0 L 1188 225.2 " stroke="#b3ac9a" stroke-width="1" fill="none"></path><path d="M 0 248 L 0 253.9 L 22 254.8 L 44 255.0 L 66 254.5 L 88 253.4 L 110 251.7 L 132 249.7 L 154 247.5 L 176 245.4 L 198 243.5 L 220 242.1 L 242 241.2 L 264 241.0 L 286 241.5 L 308 242.6 L 330 244.3 L 352 246.3 L 374 248.5 L 396 250.6 L 418 252.5 L 440 253.9 L 462 254.8 L 484 255.0 L 506 254.5 L 528 253.4 L 550 251.7 L 572 249.7 L 594 247.5 L 616 245.4 L 638 243.5 L 660 242.1 L 682 241.2 L 704 241.0 L 726 241.5 L 748 242.7 L 770 244.3 L 792 246.3 L 814 248.5 L 836 250.6 L 858 252.5 L 880 254.0 L 902 254.8 L 924 255.0 L 946 254.5 L 968 253.3 L 990 251.7 L 1012 249.7 L 1034 247.5 L 1056 245.3 L 1078 243.5 L 1100 242.0 L 1122 241.2 L 1144 241.0 L 1166 241.5 L 1188 242.7 " stroke="#b3ac9a" stroke-width="1" fill="none"></path><path d="M 0 264 L 0 271.0 L 22 270.8 L 44 270.0 L 66 268.6 L 88 266.7 L 110 264.6 L 132 262.4 L 154 260.4 L 176 258.7 L 198 257.6 L 220 257.0 L 242 257.2 L 264 258.0 L 286 259.4 L 308 261.3 L 330 263.4 L 352 265.6 L 374 267.6 L 396 269.3 L 418 270.4 L 440 271.0 L 462 270.8 L 484 270.0 L 506 268.6 L 528 266.7 L 550 264.6 L 572 262.4 L 594 260.4 L 616 258.7 L 638 257.6 L 660 257.0 L 682 257.2 L 704 258.0 L 726 259.4 L 748 261.3 L 770 263.4 L 792 265.6 L 814 267.6 L 836 269.3 L 858 270.5 L 880 271.0 L 902 270.8 L 924 270.0 L 946 268.6 L 968 266.7 L 990 264.6 L 1012 262.4 L 1034 260.4 L 1056 258.7 L 1078 257.5 L 1100 257.0 L 1122 257.2 L 1144 258.0 L 1166 259.4 L 1188 261.3 " stroke="#b3ac9a" stroke-width="1" fill="none"></path><path d="M 0 280 L 0 286.5 L 22 285.4 L 44 283.7 L 66 281.7 L 88 279.5 L 110 277.4 L 132 275.5 L 154 274.1 L 176 273.2 L 198 273.0 L 220 273.5 L 242 274.6 L 264 276.3 L 286 278.3 L 308 280.5 L 330 282.6 L 352 284.5 L 374 285.9 L 396 286.8 L 418 287.0 L 440 286.5 L 462 285.4 L 484 283.7 L 506 281.7 L 528 279.5 L 550 277.4 L 572 275.5 L 594 274.1 L 616 273.2 L 638 273.0 L 660 273.5 L 682 274.6 L 704 276.3 L 726 278.3 L 748 280.5 L 770 282.6 L 792 284.5 L 814 285.9 L 836 286.8 L 858 287.0 L 880 286.5 L 902 285.4 L 924 283.7 L 946 281.7 L 968 279.5 L 990 277.4 L 1012 275.5 L 1034 274.1 L 1056 273.2 L 1078 273.0 L 1100 273.5 L 1122 274.7 L 1144 276.3 L 1166 278.3 L 1188 280.5 " stroke="#b3ac9a" stroke-width="1" fill="none"></path><path d="M 0 296 L 0 300.6 L 22 298.8 L 44 296.6 L 66 294.4 L 88 292.4 L 110 290.7 L 132 289.6 L 154 289.0 L 176 289.2 L 198 290.0 L 220 291.4 L 242 293.3 L 264 295.4 L 286 297.6 L 308 299.6 L 330 301.3 L 352 302.4 L 374 303.0 L 396 302.8 L 418 302.0 L 440 300.6 L 462 298.7 L 484 296.6 L 506 294.4 L 528 292.4 L 550 290.7 L 572 289.6 L 594 289.0 L 616 289.2 L 638 290.0 L 660 291.4 L 682 293.3 L 704 295.4 L 726 297.6 L 748 299.6 L 770 301.3 L 792 302.4 L 814 303.0 L 836 302.8 L 858 302.0 L 880 300.6 L 902 298.7 L 924 296.6 L 946 294.4 L 968 292.4 L 990 290.7 L 1012 289.5 L 1034 289.0 L 1056 289.2 L 1078 290.0 L 1100 291.4 L 1122 293.3 L 1144 295.4 L 1166 297.6 L 1188 299.6 " stroke="#b3ac9a" stroke-width="1" fill="none"></path><path d="M 0 312 L 0 313.7 L 22 311.5 L 44 309.4 L 66 307.5 L 88 306.1 L 110 305.2 L 132 305.0 L 154 305.5 L 176 306.6 L 198 308.3 L 220 310.3 L 242 312.5 L 264 314.6 L 286 316.5 L 308 317.9 L 330 318.8 L 352 319.0 L 374 318.5 L 396 317.4 L 418 315.7 L 440 313.7 L 462 311.5 L 484 309.4 L 506 307.5 L 528 306.1 L 550 305.2 L 572 305.0 L 594 305.5 L 616 306.6 L 638 308.3 L 660 310.3 L 682 312.5 L 704 314.6 L 726 316.5 L 748 317.9 L 770 318.8 L 792 319.0 L 814 318.5 L 836 317.4 L 858 315.7 L 880 313.7 L 902 311.5 L 924 309.4 L 946 307.5 L 968 306.1 L 990 305.2 L 1012 305.0 L 1034 305.5 L 1056 306.6 L 1078 308.3 L 1100 310.3 L 1122 312.5 L 1144 314.6 L 1166 316.5 L 1188 317.9 " stroke="#b3ac9a" stroke-width="1" fill="none"></path><path d="M 0 328 L 0 326.5 L 22 324.4 L 44 322.7 L 66 321.6 L 88 321.0 L 110 321.2 L 132 322.0 L 154 323.4 L 176 325.2 L 198 327.4 L 220 329.6 L 242 331.6 L 264 333.3 L 286 334.4 L 308 335.0 L 330 334.8 L 352 334.0 L 374 332.6 L 396 330.8 L 418 328.6 L 440 326.4 L 462 324.4 L 484 322.7 L 506 321.6 L 528 321.0 L 550 321.2 L 572 322.0 L 594 323.4 L 616 325.3 L 638 327.4 L 660 329.6 L 682 331.6 L 704 333.3 L 726 334.4 L 748 335.0 L 770 334.8 L 792 334.0 L 814 332.6 L 836 330.7 L 858 328.6 L 880 326.4 L 902 324.4 L 924 322.7 L 946 321.6 L 968 321.0 L 990 321.2 L 1012 322.0 L 1034 323.4 L 1056 325.3 L 1078 327.4 L 1100 329.6 L 1122 331.6 L 1144 333.3 L 1166 334.4 L 1188 335.0 " stroke="#b3ac9a" stroke-width="1" fill="none"></path><path d="M 0 344 L 0 339.5 L 22 338.1 L 44 337.2 L 66 337.0 L 88 337.5 L 110 338.6 L 132 340.3 L 154 342.3 L 176 344.5 L 198 346.6 L 220 348.5 L 242 349.9 L 264 350.8 L 286 351.0 L 308 350.5 L 330 349.4 L 352 347.7 L 374 345.7 L 396 343.5 L 418 341.4 L 440 339.5 L 462 338.1 L 484 337.2 L 506 337.0 L 528 337.5 L 550 338.6 L 572 340.3 L 594 342.3 L 616 344.5 L 638 346.6 L 660 348.5 L 682 349.9 L 704 350.8 L 726 351.0 L 748 350.5 L 770 349.4 L 792 347.7 L 814 345.7 L 836 343.5 L 858 341.4 L 880 339.5 L 902 338.1 L 924 337.2 L 946 337.0 L 968 337.5 L 990 338.6 L 1012 340.3 L 1034 342.3 L 1056 344.5 L 1078 346.6 L 1100 348.5 L 1122 349.9 L 1144 350.8 L 1166 351.0 L 1188 350.5 " stroke="#b3ac9a" stroke-width="1" fill="none"></path><path d="M 0 360 L 0 353.6 L 22 353.0 L 44 353.2 L 66 354.0 L 88 355.4 L 110 357.2 L 132 359.4 L 154 361.5 L 176 363.6 L 198 365.3 L 220 366.4 L 242 367.0 L 264 366.8 L 286 366.0 L 308 364.6 L 330 362.8 L 352 360.6 L 374 358.5 L 396 356.4 L 418 354.7 L 440 353.6 L 462 353.0 L 484 353.2 L 506 354.0 L 528 355.4 L 550 357.2 L 572 359.4 L 594 361.6 L 616 363.6 L 638 365.3 L 660 366.4 L 682 367.0 L 704 366.8 L 726 366.0 L 748 364.6 L 770 362.7 L 792 360.6 L 814 358.4 L 836 356.4 L 858 354.7 L 880 353.6 L 902 353.0 L 924 353.2 L 946 354.0 L 968 355.4 L 990 357.3 L 1012 359.4 L 1034 361.6 L 1056 363.6 L 1078 365.3 L 1100 366.4 L 1122 367.0 L 1144 366.8 L 1166 366.0 L 1188 364.6 " stroke="#b3ac9a" stroke-width="1" fill="none"></path><path d="M 0 376 L 0 369.0 L 22 369.5 L 44 370.6 L 66 372.3 L 88 374.3 L 110 376.4 L 132 378.6 L 154 380.5 L 176 381.9 L 198 382.8 L 220 383.0 L 242 382.5 L 264 381.4 L 286 379.7 L 308 377.7 L 330 375.5 L 352 373.4 L 374 371.5 L 396 370.1 L 418 369.2 L 440 369.0 L 462 369.5 L 484 370.6 L 506 372.3 L 528 374.3 L 550 376.5 L 572 378.6 L 594 380.5 L 616 381.9 L 638 382.8 L 660 383.0 L 682 382.5 L 704 381.4 L 726 379.7 L 748 377.7 L 770 375.5 L 792 373.4 L 814 371.5 L 836 370.1 L 858 369.2 L 880 369.0 L 902 369.5 L 924 370.6 L 946 372.3 L 968 374.3 L 990 376.5 L 1012 378.6 L 1034 380.5 L 1056 381.9 L 1078 382.8 L 1100 383.0 L 1122 382.5 L 1144 381.4 L 1166 379.7 L 1188 377.7 " stroke="#b3ac9a" stroke-width="1" fill="none"></path><path d="M 0 392 L 0 386.0 L 22 387.4 L 44 389.2 L 66 391.3 L 88 393.5 L 110 395.6 L 132 397.3 L 154 398.4 L 176 399.0 L 198 398.8 L 220 398.0 L 242 396.6 L 264 394.8 L 286 392.6 L 308 390.5 L 330 388.4 L 352 386.7 L 374 385.6 L 396 385.0 L 418 385.2 L 440 386.0 L 462 387.4 L 484 389.2 L 506 391.4 L 528 393.5 L 550 395.6 L 572 397.3 L 594 398.4 L 616 399.0 L 638 398.8 L 660 398.0 L 682 396.6 L 704 394.8 L 726 392.6 L 748 390.4 L 770 388.4 L 792 386.7 L 814 385.6 L 836 385.0 L 858 385.2 L 880 386.0 L 902 387.4 L 924 389.3 L 946 391.4 L 968 393.6 L 990 395.6 L 1012 397.3 L 1034 398.4 L 1056 399.0 L 1078 398.8 L 1100 398.0 L 1122 396.6 L 1144 394.7 L 1166 392.6 L 1188 390.4 " stroke="#b3ac9a" stroke-width="1" fill="none"></path><path d="M 0 408 L 0 404.2 L 22 406.3 L 44 408.4 L 66 410.6 L 88 412.5 L 110 413.9 L 132 414.8 L 154 415.0 L 176 414.5 L 198 413.4 L 220 411.7 L 242 409.7 L 264 407.6 L 286 405.4 L 308 403.5 L 330 402.1 L 352 401.2 L 374 401.0 L 396 401.5 L 418 402.6 L 440 404.3 L 462 406.3 L 484 408.5 L 506 410.6 L 528 412.5 L 550 413.9 L 572 414.8 L 594 415.0 L 616 414.5 L 638 413.4 L 660 411.7 L 682 409.7 L 704 407.5 L 726 405.4 L 748 403.5 L 770 402.1 L 792 401.2 L 814 401.0 L 836 401.5 L 858 402.6 L 880 404.3 L 902 406.3 L 924 408.5 L 946 410.6 L 968 412.5 L 990 413.9 L 1012 414.8 L 1034 415.0 L 1056 414.5 L 1078 413.4 L 1100 411.7 L 1122 409.7 L 1144 407.5 L 1166 405.4 L 1188 403.5 " stroke="#b3ac9a" stroke-width="1" fill="none"></path><path d="M 0 424 L 0 423.3 L 22 425.5 L 44 427.6 L 66 429.2 L 88 430.4 L 110 431.0 L 132 430.8 L 154 430.0 L 176 428.6 L 198 426.8 L 220 424.7 L 242 422.5 L 264 420.4 L 286 418.7 L 308 417.6 L 330 417.0 L 352 417.2 L 374 418.0 L 396 419.4 L 418 421.2 L 440 423.3 L 462 425.5 L 484 427.6 L 506 429.3 L 528 430.4 L 550 431.0 L 572 430.8 L 594 430.0 L 616 428.6 L 638 426.8 L 660 424.6 L 682 422.5 L 704 420.4 L 726 418.7 L 748 417.6 L 770 417.0 L 792 417.2 L 814 418.0 L 836 419.4 L 858 421.2 L 880 423.4 L 902 425.6 L 924 427.6 L 946 429.3 L 968 430.4 L 990 431.0 L 1012 430.8 L 1034 430.0 L 1056 428.6 L 1078 426.8 L 1100 424.6 L 1122 422.4 L 1144 420.4 L 1166 418.7 L 1188 417.6 " stroke="#b3ac9a" stroke-width="1" fill="none"></path><path d="M 0 440 L 0 442.6 L 22 444.5 L 44 445.9 L 66 446.8 L 88 447.0 L 110 446.5 L 132 445.4 L 154 443.8 L 176 441.7 L 198 439.6 L 220 437.4 L 242 435.5 L 264 434.1 L 286 433.2 L 308 433.0 L 330 433.5 L 352 434.6 L 374 436.2 L 396 438.3 L 418 440.4 L 440 442.6 L 462 444.5 L 484 445.9 L 506 446.8 L 528 447.0 L 550 446.5 L 572 445.4 L 594 443.7 L 616 441.7 L 638 439.6 L 660 437.4 L 682 435.5 L 704 434.1 L 726 433.2 L 748 433.0 L 770 433.5 L 792 434.6 L 814 436.3 L 836 438.3 L 858 440.5 L 880 442.6 L 902 444.5 L 924 445.9 L 946 446.8 L 968 447.0 L 990 446.5 L 1012 445.4 L 1034 443.7 L 1056 441.7 L 1078 439.5 L 1100 437.4 L 1122 435.5 L 1144 434.1 L 1166 433.2 L 1188 433.0 " stroke="#b3ac9a" stroke-width="1" fill="none"></path><path d="M 0 456 L 0 461.2 L 22 462.4 L 44 463.0 L 66 462.8 L 88 462.0 L 110 460.6 L 132 458.8 L 154 456.7 L 176 454.5 L 198 452.4 L 220 450.8 L 242 449.6 L 264 449.0 L 286 449.2 L 308 450.0 L 330 451.4 L 352 453.2 L 374 455.3 L 396 457.5 L 418 459.6 L 440 461.2 L 462 462.4 L 484 463.0 L 506 462.8 L 528 462.0 L 550 460.6 L 572 458.8 L 594 456.7 L 616 454.5 L 638 452.4 L 660 450.7 L 682 449.6 L 704 449.0 L 726 449.2 L 748 450.0 L 770 451.4 L 792 453.2 L 814 455.4 L 836 457.5 L 858 459.6 L 880 461.3 L 902 462.4 L 924 463.0 L 946 462.8 L 968 462.0 L 990 460.6 L 1012 458.8 L 1034 456.6 L 1056 454.5 L 1078 452.4 L 1100 450.7 L 1122 449.6 L 1144 449.0 L 1166 449.2 L 1188 450.0 " stroke="#b3ac9a" stroke-width="1" fill="none"></path><path d="M 0 472 L 0 478.8 L 22 479.0 L 44 478.5 L 66 477.4 L 88 475.8 L 110 473.8 L 132 471.6 L 154 469.4 L 176 467.6 L 198 466.1 L 220 465.2 L 242 465.0 L 264 465.5 L 286 466.6 L 308 468.2 L 330 470.2 L 352 472.4 L 374 474.6 L 396 476.5 L 418 477.9 L 440 478.8 L 462 479.0 L 484 478.5 L 506 477.4 L 528 475.8 L 550 473.7 L 572 471.6 L 594 469.4 L 616 467.5 L 638 466.1 L 660 465.2 L 682 465.0 L 704 465.5 L 726 466.6 L 748 468.3 L 770 470.3 L 792 472.4 L 814 474.6 L 836 476.5 L 858 477.9 L 880 478.8 L 902 479.0 L 924 478.5 L 946 477.4 L 968 475.7 L 990 473.7 L 1012 471.5 L 1034 469.4 L 1056 467.5 L 1078 466.1 L 1100 465.2 L 1122 465.0 L 1144 465.5 L 1166 466.6 L 1188 468.3 " stroke="#b3ac9a" stroke-width="1" fill="none"></path><path d="M 0 488 L 0 494.8 L 22 494.0 L 44 492.6 L 66 490.8 L 88 488.7 L 110 486.5 L 132 484.5 L 154 482.8 L 176 481.6 L 198 481.0 L 220 481.2 L 242 482.0 L 264 483.4 L 286 485.2 L 308 487.3 L 330 489.5 L 352 491.6 L 374 493.2 L 396 494.4 L 418 495.0 L 440 494.8 L 462 494.0 L 484 492.6 L 506 490.8 L 528 488.7 L 550 486.5 L 572 484.4 L 594 482.8 L 616 481.6 L 638 481.0 L 660 481.2 L 682 482.0 L 704 483.4 L 726 485.2 L 748 487.3 L 770 489.5 L 792 491.6 L 814 493.3 L 836 494.4 L 858 495.0 L 880 494.8 L 902 494.0 L 924 492.6 L 946 490.8 L 968 488.6 L 990 486.5 L 1012 484.4 L 1034 482.7 L 1056 481.6 L 1078 481.0 L 1100 481.2 L 1122 482.0 L 1144 483.4 L 1166 485.2 L 1188 487.4 " stroke="#b3ac9a" stroke-width="1" fill="none"></path><path d="M 0 504 L 0 509.4 L 22 507.8 L 44 505.8 L 66 503.6 L 88 501.5 L 110 499.6 L 132 498.1 L 154 497.2 L 176 497.0 L 198 497.5 L 220 498.6 L 242 500.2 L 264 502.2 L 286 504.4 L 308 506.6 L 330 508.4 L 352 509.9 L 374 510.8 L 396 511.0 L 418 510.5 L 440 509.4 L 462 507.8 L 484 505.8 L 506 503.6 L 528 501.4 L 550 499.5 L 572 498.1 L 594 497.2 L 616 497.0 L 638 497.5 L 660 498.6 L 682 500.2 L 704 502.3 L 726 504.4 L 748 506.6 L 770 508.5 L 792 509.9 L 814 510.8 L 836 511.0 L 858 510.5 L 880 509.4 L 902 507.7 L 924 505.7 L 946 503.6 L 968 501.4 L 990 499.5 L 1012 498.1 L 1034 497.2 L 1056 497.0 L 1078 497.5 L 1100 498.6 L 1122 500.3 L 1144 502.3 L 1166 504.5 L 1188 506.6 " stroke="#b3ac9a" stroke-width="1" fill="none"></path><path d="M 0 520 L 0 522.8 L 22 520.7 L 44 518.5 L 66 516.5 L 88 514.8 L 110 513.6 L 132 513.0 L 154 513.2 L 176 514.0 L 198 515.3 L 220 517.2 L 242 519.3 L 264 521.5 L 286 523.5 L 308 525.2 L 330 526.4 L 352 527.0 L 374 526.8 L 396 526.0 L 418 524.6 L 440 522.8 L 462 520.7 L 484 518.5 L 506 516.5 L 528 514.8 L 550 513.6 L 572 513.0 L 594 513.2 L 616 514.0 L 638 515.4 L 660 517.2 L 682 519.3 L 704 521.5 L 726 523.6 L 748 525.2 L 770 526.4 L 792 527.0 L 814 526.8 L 836 526.0 L 858 524.6 L 880 522.8 L 902 520.7 L 924 518.5 L 946 516.4 L 968 514.7 L 990 513.6 L 1012 513.0 L 1034 513.2 L 1056 514.0 L 1078 515.4 L 1100 517.2 L 1122 519.3 L 1144 521.5 L 1166 523.6 L 1188 525.3 " stroke="#b3ac9a" stroke-width="1" fill="none"></path><path d="M 0 536 L 0 535.6 L 22 533.5 L 44 531.6 L 66 530.1 L 88 529.2 L 110 529.0 L 132 529.5 L 154 530.6 L 176 532.2 L 198 534.2 L 220 536.4 L 242 538.5 L 264 540.4 L 286 541.9 L 308 542.8 L 330 543.0 L 352 542.5 L 374 541.4 L 396 539.8 L 418 537.8 L 440 535.6 L 462 533.4 L 484 531.6 L 506 530.1 L 528 529.2 L 550 529.0 L 572 529.5 L 594 530.6 L 616 532.2 L 638 534.2 L 660 536.4 L 682 538.6 L 704 540.5 L 726 541.9 L 748 542.8 L 770 543.0 L 792 542.5 L 814 541.4 L 836 539.8 L 858 537.7 L 880 535.6 L 902 533.4 L 924 531.5 L 946 530.1 L 968 529.2 L 990 529.0 L 1012 529.5 L 1034 530.6 L 1056 532.2 L 1078 534.3 L 1100 536.4 L 1122 538.6 L 1144 540.5 L 1166 541.9 L 1188 542.8 " stroke="#b3ac9a" stroke-width="1" fill="none"></path><path d="M 0 552 L 0 548.5 L 22 546.8 L 44 545.6 L 66 545.0 L 88 545.2 L 110 546.0 L 132 547.3 L 154 549.2 L 176 551.3 L 198 553.5 L 220 555.5 L 242 557.2 L 264 558.4 L 286 559.0 L 308 558.8 L 330 558.0 L 352 556.7 L 374 554.8 L 396 552.7 L 418 550.5 L 440 548.5 L 462 546.8 L 484 545.6 L 506 545.0 L 528 545.2 L 550 546.0 L 572 547.4 L 594 549.2 L 616 551.3 L 638 553.5 L 660 555.5 L 682 557.2 L 704 558.4 L 726 559.0 L 748 558.8 L 770 558.0 L 792 556.6 L 814 554.8 L 836 552.7 L 858 550.5 L 880 548.4 L 902 546.8 L 924 545.6 L 946 545.0 L 968 545.2 L 990 546.0 L 1012 547.4 L 1034 549.2 L 1056 551.3 L 1078 553.5 L 1100 555.6 L 1122 557.2 L 1144 558.4 L 1166 559.0 L 1188 558.8 " stroke="#b3ac9a" stroke-width="1" fill="none"></path><path d="M 0 568 L 0 562.1 L 22 561.2 L 44 561.0 L 66 561.5 L 88 562.6 L 110 564.2 L 132 566.2 L 154 568.4 L 176 570.5 L 198 572.4 L 220 573.9 L 242 574.8 L 264 575.0 L 286 574.5 L 308 573.4 L 330 571.8 L 352 569.8 L 374 567.6 L 396 565.5 L 418 563.6 L 440 562.1 L 462 561.2 L 484 561.0 L 506 561.5 L 528 562.6 L 550 564.2 L 572 566.2 L 594 568.4 L 616 570.6 L 638 572.4 L 660 573.9 L 682 574.8 L 704 575.0 L 726 574.5 L 748 573.4 L 770 571.8 L 792 569.8 L 814 567.6 L 836 565.4 L 858 563.6 L 880 562.1 L 902 561.2 L 924 561.0 L 946 561.5 L 968 562.6 L 990 564.2 L 1012 566.2 L 1034 568.4 L 1056 570.6 L 1078 572.5 L 1100 573.9 L 1122 574.8 L 1144 575.0 L 1166 574.5 L 1188 573.4 " stroke="#b3ac9a" stroke-width="1" fill="none"></path><path d="M 0 584 L 0 577.0 L 22 577.2 L 44 577.9 L 66 579.3 L 88 581.2 L 110 583.3 L 132 585.5 L 154 587.5 L 176 589.2 L 198 590.4 L 220 591.0 L 242 590.8 L 264 590.0 L 286 588.7 L 308 586.8 L 330 584.7 L 352 582.5 L 374 580.5 L 396 578.8 L 418 577.6 L 440 577.0 L 462 577.2 L 484 578.0 L 506 579.3 L 528 581.2 L 550 583.3 L 572 585.5 L 594 587.5 L 616 589.2 L 638 590.4 L 660 591.0 L 682 590.8 L 704 590.0 L 726 588.6 L 748 586.8 L 770 584.7 L 792 582.5 L 814 580.5 L 836 578.8 L 858 577.6 L 880 577.0 L 902 577.2 L 924 578.0 L 946 579.4 L 968 581.2 L 990 583.3 L 1012 585.5 L 1034 587.6 L 1056 589.2 L 1078 590.4 L 1100 591.0 L 1122 590.8 L 1144 590.0 L 1166 588.6 L 1188 586.8 " stroke="#b3ac9a" stroke-width="1" fill="none"></path><path d="M 0 600 L 0 593.5 L 22 594.6 L 44 596.2 L 66 598.2 L 88 600.4 L 110 602.5 L 132 604.4 L 154 605.9 L 176 606.8 L 198 607.0 L 220 606.5 L 242 605.4 L 264 603.8 L 286 601.8 L 308 599.6 L 330 597.5 L 352 595.6 L 374 594.1 L 396 593.2 L 418 593.0 L 440 593.5 L 462 594.6 L 484 596.2 L 506 598.2 L 528 600.4 L 550 602.5 L 572 604.4 L 594 605.9 L 616 606.8 L 638 607.0 L 660 606.5 L 682 605.4 L 704 603.8 L 726 601.8 L 748 599.6 L 770 597.5 L 792 595.6 L 814 594.1 L 836 593.2 L 858 593.0 L 880 593.5 L 902 594.6 L 924 596.2 L 946 598.2 L 968 600.4 L 990 602.6 L 1012 604.4 L 1034 605.9 L 1056 606.8 L 1078 607.0 L 1100 606.5 L 1122 605.4 L 1144 603.8 L 1166 601.8 L 1188 599.6 " stroke="#b3ac9a" stroke-width="1" fill="none"></path><path d="M 0 616 L 0 611.3 L 22 613.2 L 44 615.3 L 66 617.5 L 88 619.5 L 110 621.2 L 132 622.4 L 154 623.0 L 176 622.8 L 198 622.1 L 220 620.7 L 242 618.8 L 264 616.7 L 286 614.5 L 308 612.5 L 330 610.8 L 352 609.6 L 374 609.0 L 396 609.2 L 418 610.0 L 440 611.3 L 462 613.2 L 484 615.3 L 506 617.5 L 528 619.5 L 550 621.2 L 572 622.4 L 594 623.0 L 616 622.8 L 638 622.0 L 660 620.7 L 682 618.8 L 704 616.7 L 726 614.5 L 748 612.5 L 770 610.8 L 792 609.6 L 814 609.0 L 836 609.2 L 858 610.0 L 880 611.3 L 902 613.2 L 924 615.3 L 946 617.5 L 968 619.5 L 990 621.2 L 1012 622.4 L 1034 623.0 L 1056 622.8 L 1078 622.0 L 1100 620.6 L 1122 618.8 L 1144 616.7 L 1166 614.5 L 1188 612.5 " stroke="#b3ac9a" stroke-width="1" fill="none"></path><path d="M 0 632 L 0 630.2 L 22 632.4 L 44 634.5 L 66 636.4 L 88 637.9 L 110 638.8 L 132 639.0 L 154 638.5 L 176 637.4 L 198 635.8 L 220 633.8 L 242 631.6 L 264 629.5 L 286 627.6 L 308 626.1 L 330 625.2 L 352 625.0 L 374 625.5 L 396 626.6 L 418 628.2 L 440 630.2 L 462 632.4 L 484 634.5 L 506 636.4 L 528 637.9 L 550 638.8 L 572 639.0 L 594 638.5 L 616 637.4 L 638 635.8 L 660 633.8 L 682 631.6 L 704 629.5 L 726 627.6 L 748 626.1 L 770 625.2 L 792 625.0 L 814 625.5 L 836 626.6 L 858 628.2 L 880 630.2 L 902 632.4 L 924 634.5 L 946 636.4 L 968 637.9 L 990 638.8 L 1012 639.0 L 1034 638.5 L 1056 637.4 L 1078 635.8 L 1100 633.8 L 1122 631.6 L 1144 629.4 L 1166 627.6 L 1188 626.1 " stroke="#b3ac9a" stroke-width="1" fill="none"></path><path d="M 0 648 L 0 649.5 L 22 651.5 L 44 653.2 L 66 654.4 L 88 655.0 L 110 654.8 L 132 654.1 L 154 652.7 L 176 650.8 L 198 648.7 L 220 646.5 L 242 644.5 L 264 642.8 L 286 641.6 L 308 641.0 L 330 641.2 L 352 641.9 L 374 643.3 L 396 645.2 L 418 647.3 L 440 649.5 L 462 651.5 L 484 653.2 L 506 654.4 L 528 655.0 L 550 654.8 L 572 654.1 L 594 652.7 L 616 650.8 L 638 648.7 L 660 646.5 L 682 644.5 L 704 642.8 L 726 641.6 L 748 641.0 L 770 641.2 L 792 642.0 L 814 643.3 L 836 645.2 L 858 647.3 L 880 649.5 L 902 651.5 L 924 653.2 L 946 654.4 L 968 655.0 L 990 654.8 L 1012 654.0 L 1034 652.7 L 1056 650.8 L 1078 648.7 L 1100 646.5 L 1122 644.5 L 1144 642.8 L 1166 641.6 L 1188 641.0 " stroke="#b3ac9a" stroke-width="1" fill="none"></path><path d="M 0 664 L 0 668.4 L 22 669.9 L 44 670.8 L 66 671.0 L 88 670.5 L 110 669.4 L 132 667.8 L 154 665.8 L 176 663.6 L 198 661.5 L 220 659.6 L 242 658.1 L 264 657.2 L 286 657.0 L 308 657.5 L 330 658.6 L 352 660.2 L 374 662.2 L 396 664.4 L 418 666.5 L 440 668.4 L 462 669.9 L 484 670.8 L 506 671.0 L 528 670.5 L 550 669.4 L 572 667.8 L 594 665.8 L 616 663.6 L 638 661.5 L 660 659.6 L 682 658.1 L 704 657.2 L 726 657.0 L 748 657.5 L 770 658.6 L 792 660.2 L 814 662.2 L 836 664.4 L 858 666.5 L 880 668.4 L 902 669.9 L 924 670.8 L 946 671.0 L 968 670.5 L 990 669.4 L 1012 667.8 L 1034 665.8 L 1056 663.6 L 1078 661.5 L 1100 659.6 L 1122 658.1 L 1144 657.2 L 1166 657.0 L 1188 657.5 " stroke="#b3ac9a" stroke-width="1" fill="none"></path><path d="M 0 680 L 0 686.4 L 22 687.0 L 44 686.8 L 66 686.1 L 88 684.7 L 110 682.9 L 132 680.7 L 154 678.5 L 176 676.5 L 198 674.8 L 220 673.6 L 242 673.0 L 264 673.2 L 286 673.9 L 308 675.3 L 330 677.2 L 352 679.3 L 374 681.5 L 396 683.5 L 418 685.2 L 440 686.4 L 462 687.0 L 484 686.8 L 506 686.1 L 528 684.7 L 550 682.8 L 572 680.7 L 594 678.5 L 616 676.5 L 638 674.8 L 660 673.6 L 682 673.0 L 704 673.2 L 726 673.9 L 748 675.3 L 770 677.2 L 792 679.3 L 814 681.5 L 836 683.5 L 858 685.2 L 880 686.4 L 902 687.0 L 924 686.8 L 946 686.0 L 968 684.7 L 990 682.8 L 1012 680.7 L 1034 678.5 L 1056 676.5 L 1078 674.8 L 1100 673.6 L 1122 673.0 L 1144 673.2 L 1166 674.0 L 1188 675.3 " stroke="#b3ac9a" stroke-width="1" fill="none"></path><path d="M 0 696 L 0 703.0 L 22 702.5 L 44 701.4 L 66 699.8 L 88 697.8 L 110 695.6 L 132 693.5 L 154 691.6 L 176 690.1 L 198 689.2 L 220 689.0 L 242 689.5 L 264 690.6 L 286 692.2 L 308 694.2 L 330 696.4 L 352 698.5 L 374 700.4 L 396 701.9 L 418 702.8 L 440 703.0 L 462 702.5 L 484 701.4 L 506 699.8 L 528 697.8 L 550 695.6 L 572 693.5 L 594 691.6 L 616 690.1 L 638 689.2 L 660 689.0 L 682 689.5 L 704 690.6 L 726 692.2 L 748 694.2 L 770 696.4 L 792 698.5 L 814 700.4 L 836 701.9 L 858 702.8 L 880 703.0 L 902 702.5 L 924 701.4 L 946 699.8 L 968 697.8 L 990 695.6 L 1012 693.5 L 1034 691.6 L 1056 690.1 L 1078 689.2 L 1100 689.0 L 1122 689.5 L 1144 690.6 L 1166 692.2 L 1188 694.2 " stroke="#b3ac9a" stroke-width="1" fill="none"></path><path d="M 0 712 L 0 718.1 L 22 716.7 L 44 714.9 L 66 712.7 L 88 710.6 L 110 708.5 L 132 706.8 L 154 705.6 L 176 705.0 L 198 705.2 L 220 705.9 L 242 707.3 L 264 709.1 L 286 711.3 L 308 713.4 L 330 715.5 L 352 717.2 L 374 718.4 L 396 719.0 L 418 718.8 L 440 718.1 L 462 716.7 L 484 714.8 L 506 712.7 L 528 710.5 L 550 708.5 L 572 706.8 L 594 705.6 L 616 705.0 L 638 705.2 L 660 705.9 L 682 707.3 L 704 709.2 L 726 711.3 L 748 713.5 L 770 715.5 L 792 717.2 L 814 718.4 L 836 719.0 L 858 718.8 L 880 718.1 L 902 716.7 L 924 714.8 L 946 712.7 L 968 710.5 L 990 708.5 L 1012 706.8 L 1034 705.6 L 1056 705.0 L 1078 705.2 L 1100 706.0 L 1122 707.3 L 1144 709.2 L 1166 711.3 L 1188 713.5 " stroke="#b3ac9a" stroke-width="1" fill="none"></path><path d="M 0 728 L 0 731.8 L 22 729.8 L 44 727.7 L 66 725.5 L 88 723.6 L 110 722.1 L 132 721.2 L 154 721.0 L 176 721.5 L 198 722.5 L 220 724.2 L 242 726.2 L 264 728.4 L 286 730.5 L 308 732.4 L 330 733.9 L 352 734.8 L 374 735.0 L 396 734.5 L 418 733.4 L 440 731.8 L 462 729.8 L 484 727.6 L 506 725.5 L 528 723.6 L 550 722.1 L 572 721.2 L 594 721.0 L 616 721.5 L 638 722.6 L 660 724.2 L 682 726.2 L 704 728.4 L 726 730.5 L 748 732.4 L 770 733.9 L 792 734.8 L 814 735.0 L 836 734.5 L 858 733.4 L 880 731.8 L 902 729.8 L 924 727.6 L 946 725.5 L 968 723.6 L 990 722.1 L 1012 721.2 L 1034 721.0 L 1056 721.5 L 1078 722.6 L 1100 724.2 L 1122 726.2 L 1144 728.4 L 1166 730.5 L 1188 732.4 " stroke="#b3ac9a" stroke-width="1" fill="none"></path><path d="M 0 744 L 0 744.8 L 22 742.6 L 44 740.5 L 66 738.8 L 88 737.6 L 110 737.0 L 132 737.1 L 154 737.9 L 176 739.3 L 198 741.1 L 220 743.2 L 242 745.4 L 264 747.5 L 286 749.2 L 308 750.4 L 330 751.0 L 352 750.9 L 374 750.1 L 396 748.7 L 418 746.9 L 440 744.7 L 462 742.6 L 484 740.5 L 506 738.8 L 528 737.6 L 550 737.0 L 572 737.2 L 594 737.9 L 616 739.3 L 638 741.2 L 660 743.3 L 682 745.5 L 704 747.5 L 726 749.2 L 748 750.4 L 770 751.0 L 792 750.8 L 814 750.1 L 836 748.7 L 858 746.8 L 880 744.7 L 902 742.5 L 924 740.5 L 946 738.8 L 968 737.6 L 990 737.0 L 1012 737.2 L 1034 737.9 L 1056 739.3 L 1078 741.2 L 1100 743.3 L 1122 745.5 L 1144 747.5 L 1166 749.2 L 1188 750.4 " stroke="#b3ac9a" stroke-width="1" fill="none"></path><path d="M 0 760 L 0 757.5 L 22 755.6 L 44 754.1 L 66 753.2 L 88 753.0 L 110 753.5 L 132 754.5 L 154 756.2 L 176 758.2 L 198 760.3 L 220 762.5 L 242 764.4 L 264 765.9 L 286 766.8 L 308 767.0 L 330 766.5 L 352 765.5 L 374 763.8 L 396 761.8 L 418 759.6 L 440 757.5 L 462 755.6 L 484 754.1 L 506 753.2 L 528 753.0 L 550 753.5 L 572 754.6 L 594 756.2 L 616 758.2 L 638 760.4 L 660 762.5 L 682 764.4 L 704 765.9 L 726 766.8 L 748 767.0 L 770 766.5 L 792 765.4 L 814 763.8 L 836 761.8 L 858 759.6 L 880 757.5 L 902 755.6 L 924 754.1 L 946 753.2 L 968 753.0 L 990 753.5 L 1012 754.6 L 1034 756.2 L 1056 758.2 L 1078 760.4 L 1100 762.5 L 1122 764.4 L 1144 765.9 L 1166 766.8 L 1188 767.0 " stroke="#b3ac9a" stroke-width="1" fill="none"></path><path d="M 0 776 L 0 770.8 L 22 769.6 L 44 769.0 L 66 769.1 L 88 769.9 L 110 771.3 L 132 773.1 L 154 775.2 L 176 777.4 L 198 779.5 L 220 781.2 L 242 782.4 L 264 783.0 L 286 782.9 L 308 782.1 L 330 780.7 L 352 778.9 L 374 776.8 L 396 774.6 L 418 772.5 L 440 770.8 L 462 769.6 L 484 769.0 L 506 769.1 L 528 769.9 L 550 771.3 L 572 773.1 L 594 775.3 L 616 777.4 L 638 779.5 L 660 781.2 L 682 782.4 L 704 783.0 L 726 782.8 L 748 782.1 L 770 780.7 L 792 778.9 L 814 776.7 L 836 774.5 L 858 772.5 L 880 770.8 L 902 769.6 L 924 769.0 L 946 769.2 L 968 769.9 L 990 771.3 L 1012 773.2 L 1034 775.3 L 1056 777.5 L 1078 779.5 L 1100 781.2 L 1122 782.4 L 1144 783.0 L 1166 782.8 L 1188 782.1 " stroke="#b3ac9a" stroke-width="1" fill="none"></path><path d="M 0 792 L 0 785.2 L 22 785.0 L 44 785.5 L 66 786.5 L 88 788.2 L 110 790.2 L 132 792.3 L 154 794.5 L 176 796.4 L 198 797.9 L 220 798.8 L 242 799.0 L 264 798.5 L 286 797.5 L 308 795.8 L 330 793.8 L 352 791.7 L 374 789.5 L 396 787.6 L 418 786.1 L 440 785.2 L 462 785.0 L 484 785.5 L 506 786.5 L 528 788.2 L 550 790.2 L 572 792.3 L 594 794.5 L 616 796.4 L 638 797.9 L 660 798.8 L 682 799.0 L 704 798.5 L 726 797.4 L 748 795.8 L 770 793.8 L 792 791.6 L 814 789.5 L 836 787.6 L 858 786.1 L 880 785.2 L 902 785.0 L 924 785.5 L 946 786.6 L 968 788.2 L 990 790.2 L 1012 792.4 L 1034 794.5 L 1056 796.4 L 1078 797.9 L 1100 798.8 L 1122 799.0 L 1144 798.5 L 1166 797.4 L 1188 795.8 " stroke="#b3ac9a" stroke-width="1" fill="none"></path>
  <g font-family="Helvetica, Arial, sans-serif" font-size="16" fill="#2a2925" letter-spacing="2.5" font-weight="600" opacity="0.7">
    <text x="40" y="56">[ YOGA ]</text>
    <text x="40" y="764" font-size="13" opacity="0.55">PLACEHOLDER · DROP IMAGE · 3:2</text>
  </g>
</svg>